<?xml version="1.0" encoding="UTF-8" standalone="no"?>
<!-- Created with Inkscape (http://www.inkscape.org/) -->

<svg
   width="63.732353mm"
   height="12.30945mm"
   viewBox="0 0 63.732353 12.30945"
   version="1.1"
   id="svg5"
   xmlns="http://www.w3.org/2000/svg"
   xmlns:svg="http://www.w3.org/2000/svg">
  <defs
     id="defs2">
    <rect
       x="35.223328"
       y="211.77415"
       width="245.51685"
       height="55.807568"
       id="rect113" />
  </defs>
  <g
     id="layer1"
     transform="translate(-8.8323534,-57.544)">
    <g
       aria-label="Styled Calendar"
       transform="scale(0.26458333)"
       id="text111"
       style="font-size:40px;line-height:1.25;white-space:pre;shape-inside:url(#rect113);fill:#6366f1">
      <path
         d="m 49.558594,229.23437 q -0.03906,-0.11718 0.234375,-0.58593 0.273437,-0.50782 0.585937,-1.21094 0.351563,-0.74219 0.664063,-1.64063 0.351562,-0.9375 0.46875,-1.91406 0.15625,-0.97656 0,-1.95312 -0.15625,-0.97657 -0.820313,-1.875 -0.390625,-0.46875 -1.171875,-0.50782 -0.742187,-0.0781 -1.71875,0.23438 -0.9375,0.27344 -1.992187,0.89844 -1.015625,0.58593 -1.875,1.40625 -0.859375,0.78125 -1.484375,1.75781 -0.585938,0.97656 -0.664063,1.99219 -0.07813,0.82031 0.03906,1.52343 0.15625,0.70313 0.390625,1.28907 0.234375,0.58593 0.507812,1.09375 0.273438,0.50781 0.507813,0.89843 0.3125,0.54688 0.976562,1.21094 0.664063,0.66406 1.445313,1.52344 0.78125,0.82031 1.5625,1.875 0.78125,1.05469 1.367187,2.38281 0.585938,1.32813 0.820313,2.96875 0.234375,1.64063 -0.03906,3.63281 -0.429687,2.89063 -1.367187,4.80469 -0.9375,1.95313 -2.070313,3.125 -1.09375,1.17188 -2.226562,1.67969 -1.132813,0.54687 -1.875,0.70312 -0.585938,0.11719 -1.40625,0.19532 -0.78125,0.11718 -1.679688,-0.0391 -0.859375,-0.11718 -1.757812,-0.54687 -0.898438,-0.39063 -1.601563,-1.25 -0.820312,-0.97656 -1.289062,-2.10938 -0.429688,-0.97656 -0.625,-2.26562 -0.234375,-1.25 0.195312,-2.61719 0.3125,-0.35156 0.664063,-0.625 0.351562,-0.27344 0.703125,-0.46875 0.390625,-0.23437 0.820312,-0.42969 0.507813,-0.15625 1.015625,-0.27343 0.429688,-0.0781 0.898438,-0.0781 0.507812,-0.0391 0.9375,0.11719 -0.585938,0.66406 -0.820313,1.25 -0.15625,0.3125 -0.234375,0.54687 -0.15625,0.74219 -0.117187,1.75782 0.07813,1.05468 0.429687,1.99218 0.390625,0.97657 1.09375,1.64063 0.703125,0.70312 1.875,0.74219 2.851563,0.0781 4.84375,-4.45313 0.664063,-1.40625 0.664063,-2.85156 0.03906,-1.44531 -0.351563,-2.77344 -0.351562,-1.32812 -0.976562,-2.46094 -0.585938,-1.17187 -1.210938,-1.99218 -0.625,-0.82032 -1.523437,-1.75782 -0.859375,-0.97656 -1.71875,-2.10937 -0.859375,-1.13281 -1.5625,-2.46094 -0.664063,-1.32812 -0.898438,-2.89062 -0.3125,-2.1875 0.390625,-3.98438 0.742188,-1.83594 1.953125,-3.20312 1.25,-1.36719 2.695313,-2.22657 1.484375,-0.85937 2.617187,-1.09375 6.289063,-1.25 8.242188,2.10938 0.820312,1.28906 0.898437,2.73437 0.07813,1.44532 -0.195312,2.69532 -0.234375,1.21093 -0.625,2.07031 -0.351563,0.82031 -0.46875,0.89844 -0.234375,0.23437 -0.742188,0.50781 -0.507812,0.27344 -1.640625,0.50781 -0.3125,0.0781 -0.625,0.0781 -0.273437,0 -0.585937,-0.0391 -0.3125,-0.0391 -0.546875,-0.15625 z"
         style="font-family:Satisfy;-inkscape-font-specification:Satisfy"
         id="path5275" />
      <path
         d="m 68.621094,237.28125 q 0.15625,-0.23438 0.390625,-0.27344 0.273437,-0.0781 0.429687,0.0391 0.15625,0.11719 0.15625,0.39063 0.03906,0.27344 -0.195312,0.74219 -0.78125,1.48437 -2.070313,3.20312 -1.25,1.71875 -2.65625,3.24219 -1.40625,1.48437 -2.734375,2.46094 -1.328125,0.97656 -2.226562,0.97656 -1.289063,0 -2.148438,-0.50781 -0.859375,-0.50782 -1.367187,-1.25 -0.46875,-0.74219 -0.664063,-1.60157 -0.195312,-0.89843 -0.117187,-1.64062 0.03906,-0.625 0.273437,-2.22656 0.234375,-1.64063 0.625,-3.75 0.390625,-2.14844 0.859375,-4.57032 0.507813,-2.46093 1.054688,-4.72656 -0.664063,0.0781 -1.328125,0.15625 -0.664063,0.0781 -1.210938,0.0781 -1.25,0 -2.34375,-0.27344 -1.132812,-0.3125 -1.679687,-0.58594 -0.3125,-0.15625 -0.273438,-0.42969 0.03906,-0.3125 0.234375,-0.58593 0.195313,-0.3125 0.507813,-0.50782 0.273437,-0.23437 0.507812,-0.23437 0.742188,0.0781 1.601563,0.15625 0.859375,0.0391 1.875,0 0.742187,-0.0391 1.40625,-0.11719 0.703125,-0.0781 1.367187,-0.19531 0.507813,-1.875 0.976563,-3.24219 0.507812,-1.40625 0.898437,-1.95312 0.117188,-0.19532 0.507813,-0.3125 0.429687,-0.15625 0.898437,-0.19532 0.46875,-0.0781 0.898438,0 0.429687,0.0391 0.625,0.27344 0.195312,0.3125 0.15625,1.60156 -0.03906,1.28907 -0.429688,3.28125 1.640625,0 2.890625,0.19532 1.289063,0.15625 2.1875,0.39062 0.898438,0.19531 1.445313,0.42969 0.546875,0.19531 0.820312,0.27344 0.273438,0.0781 0.273438,0.39062 0.03906,0.3125 -0.117188,0.66406 -0.117187,0.3125 -0.429687,0.54688 -0.3125,0.23437 -0.703125,0.15625 -0.390625,-0.0391 -0.898438,-0.15625 -0.46875,-0.11719 -1.171875,-0.19531 -0.664062,-0.0781 -1.601562,-0.15625 -0.9375,-0.0781 -2.1875,-0.0781 -0.234375,0 -0.546875,0.0391 -0.273438,0 -0.585938,0 -0.15625,0.625 -0.3125,1.25 -0.117187,0.58594 -0.351562,1.25 -0.507813,1.5625 -1.171875,3.39844 -0.585938,1.60156 -1.40625,3.67188 -0.820313,2.07031 -1.835938,4.41406 -0.234375,1.67969 0.03906,2.57812 0.3125,0.85938 0.742187,1.25 0.507813,0.42969 1.25,0.46875 0.585938,0.0781 1.40625,-0.39062 0.859375,-0.50781 1.757813,-1.32813 0.898437,-0.82031 1.796875,-1.79687 0.9375,-0.97656 1.71875,-1.91406 0.78125,-0.9375 1.367187,-1.67969 0.585938,-0.78125 0.820313,-1.09375 z"
         style="font-family:Satisfy;-inkscape-font-specification:Satisfy"
         id="path5277" />
      <path
         d="m 76.550781,232.78906 q 0.507813,-0.39062 0.976563,-0.58594 0.507812,-0.23437 0.898437,-0.3125 0.429688,-0.11718 0.859375,-0.0781 1.054688,0.0781 1.289063,0.66406 0.273437,0.58594 0.07813,1.875 -0.117188,0.66406 -0.46875,1.67969 -0.351563,1.01562 -0.820313,2.5 -0.46875,1.44531 -1.015625,3.32031 -0.507812,1.875 -0.976562,4.21875 -0.46875,1.91406 -1.015625,4.41406 -0.46875,2.1875 -1.132813,5.27344 -0.625,3.08594 -1.367187,7.07031 -0.195313,0.97657 -0.859375,1.13282 -0.625,0.15625 -1.328125,-0.15625 -0.273438,-0.15625 -0.507813,-0.35157 -0.195312,-0.19531 -0.429687,-0.46875 -0.234375,-0.23437 -0.390625,-0.66406 0.898437,-3.28125 1.5625,-5.97656 0.703125,-2.69531 1.25,-4.6875 0.585937,-2.30469 1.09375,-4.14063 0.195312,-0.82031 0.351562,-1.60156 0.195313,-0.82031 0.390625,-1.60156 -0.507812,0.82031 -1.09375,1.5625 -0.585937,0.74219 -1.289062,1.28906 -0.703125,0.54688 -1.523438,0.82031 -0.78125,0.3125 -1.640625,0.19532 -2.109375,-0.27344 -3.007812,-1.5625 -0.859375,-1.28907 -0.742188,-3.35938 0.03906,-0.82031 0.234375,-1.79687 0.195313,-0.97657 0.429688,-1.875 0.234375,-0.89844 0.429687,-1.60157 0.234375,-0.74218 0.351563,-1.05468 0.46875,-1.48438 0.664062,-2.53907 0.234375,-1.05468 -0.3125,-1.75781 0.546875,-0.35156 1.015625,-0.46875 0.507813,-0.15625 0.898438,-0.23437 0.429687,-0.0391 0.859375,0 1.054687,0.15625 1.210937,0.78125 0.195313,0.625 -0.117187,1.875 -0.15625,0.66406 -0.507813,1.71875 -0.351562,1.01562 -0.742187,2.10937 -0.390625,1.09375 -0.703125,2.03125 -0.3125,0.89844 -0.351563,1.28906 -0.351562,1.75782 -0.03906,2.73438 0.3125,0.9375 1.367187,0.9375 0.507813,0 1.132813,-0.42969 0.625,-0.46875 1.25,-1.21094 0.664062,-0.74218 1.289062,-1.67968 0.625,-0.97657 1.132813,-1.95313 0.546875,-0.97656 0.9375,-1.91406 0.429687,-0.9375 0.625,-1.67969 0.273437,-1.44531 0.351562,-2.26562 0.07813,-0.82032 -0.546875,-1.48438 z"
         style="font-family:Satisfy;-inkscape-font-specification:Satisfy"
         id="path5279" />
      <path
         d="m 81.941406,246.53906 q 1.71875,-7.22656 2.734375,-11.60156 1.054688,-4.375 1.601563,-6.67969 0.625,-2.73437 0.859375,-3.78906 0.117187,-0.74219 0.195312,-1.44531 0.07813,-0.625 0.07813,-1.28907 0,-0.66406 -0.117187,-1.21093 0.3125,-0.19532 0.664062,-0.3125 0.390625,-0.11719 0.742188,-0.19532 0.429687,-0.11718 0.859375,-0.19531 0.429687,-0.0781 0.78125,-0.0781 0.3125,0 0.585937,0.0781 0.273438,0.0391 0.351563,0.23438 0.234375,0.19531 0.195312,0.78125 0,0.58593 -0.07813,1.21093 -0.15625,0.74219 -0.351562,1.60157 -0.46875,1.67968 -1.289063,4.84375 -0.703125,2.69531 -1.914062,7.34375 -1.171875,4.64843 -2.96875,11.71875 -0.195313,0.19531 -0.46875,0.27343 -0.273438,0.0781 -0.507813,0.0781 -0.273437,0 -0.585937,-0.0391 -0.273438,-0.0781 -0.546875,-0.23438 -0.234375,-0.15625 -0.46875,-0.42969 -0.234375,-0.23437 -0.351563,-0.66406 z"
         style="font-family:Satisfy;-inkscape-font-specification:Satisfy"
         id="path5281" />
      <path
         d="m 108.97266,239.03906 q -1.17188,1.71875 -2.65625,3.35938 -1.48438,1.60156 -3.16407,2.89062 -1.64062,1.25 -3.398434,2.03125 -1.71875,0.78125 -3.359375,0.78125 -0.859375,0 -1.875,-0.42969 -0.976562,-0.39062 -1.796875,-1.25 -0.820312,-0.85937 -1.328125,-2.22656 -0.46875,-1.36719 -0.273437,-3.32031 0.15625,-1.60156 0.976562,-3.35938 0.859375,-1.79687 2.070313,-3.28125 1.25,-1.48437 2.773437,-2.46093 1.5625,-0.97657 3.125004,-0.97657 1.48437,0 2.14843,0.74219 0.66407,0.74219 0.58594,1.83594 -0.11719,1.21094 -0.70312,2.22656 -0.54688,1.01563 -1.32813,1.83594 -0.781249,0.82031 -1.679686,1.48437 -0.859375,0.66407 -1.640625,1.21094 -0.859375,0.58594 -1.640625,1.13281 -0.78125,0.50782 -1.367188,0.9375 0.03906,0.97657 0.351563,1.64063 0.3125,0.66406 0.78125,1.09375 0.46875,0.39062 1.054687,0.58594 0.625,0.15625 1.25,0.15625 1.328125,0 2.773434,-0.82032 1.44532,-0.85937 2.8125,-2.03125 1.40625,-1.21093 2.57813,-2.5 1.21094,-1.28906 1.99219,-2.22656 0.27343,-0.3125 0.54687,-0.35156 0.3125,-0.0781 0.46875,0.0781 0.19531,0.11719 0.19531,0.46875 0,0.3125 -0.27343,0.74219 z m -10.000004,-6.01562 q -0.46875,0 -1.132812,0.46875 -0.625,0.46875 -1.25,1.36718 -0.625,0.85938 -1.171875,2.14844 -0.546875,1.25 -0.820313,2.89063 0.46875,-0.35157 1.015625,-0.70313 0.546875,-0.39062 1.09375,-0.82031 1.679688,-1.28906 2.34375,-2.26563 0.664063,-0.97656 0.742188,-1.67968 0.07813,-0.74219 -0.15625,-1.05469 -0.234375,-0.35156 -0.664063,-0.35156 z"
         style="font-family:Satisfy;-inkscape-font-specification:Satisfy"
         id="path5283" />
      <path
         d="m 118.58203,239.70312 q -0.19531,1.21094 -0.39062,2.30469 -0.15625,1.09375 -0.19532,1.75781 -0.0391,0.97657 0.35157,1.40625 0.39062,0.42969 0.85937,0.42969 0.54688,0 1.32813,-0.54687 0.82031,-0.54688 1.71875,-1.36719 0.89843,-0.82031 1.79687,-1.79688 0.89844,-0.97656 1.64063,-1.83593 0.78125,-0.89844 1.28906,-1.5625 0.54687,-0.66407 0.74219,-0.85938 0.23437,-0.23437 0.46875,-0.27344 0.27343,-0.0391 0.42968,0.0781 0.15625,0.11719 0.15625,0.42969 0,0.3125 -0.3125,0.78125 -0.46875,0.74218 -1.21093,1.75781 -0.74219,0.97656 -1.64063,2.03125 -0.89844,1.05469 -1.91406,2.07031 -0.97656,1.01563 -1.99219,1.79688 -0.97656,0.78125 -1.91406,1.25 -0.89844,0.50781 -1.64063,0.50781 -0.54687,0 -1.05468,-0.3125 -0.46875,-0.3125 -0.85938,-0.82031 -0.39062,-0.50782 -0.625,-1.13282 -0.19531,-0.625 -0.15625,-1.25 0.0391,-0.27343 0.11719,-0.9375 -1.64063,1.83594 -3.32031,2.92969 -1.64063,1.05469 -3.16407,1.05469 -0.54687,0 -1.17187,-0.27344 -0.625,-0.27344 -1.13281,-0.89844 -0.46875,-0.625 -0.78125,-1.64062 -0.3125,-1.01563 -0.23438,-2.46094 0.11719,-2.26562 0.89844,-4.29687 0.78125,-2.03125 1.95312,-3.51563 1.21094,-1.52344 2.69532,-2.38281 1.52343,-0.89844 3.04687,-0.89844 0.66406,0 1.21094,0.35156 0.54687,0.3125 0.9375,0.85938 0.39062,0.50781 0.625,1.13281 0.27344,0.625 0.39062,1.17188 0.27344,-1.13282 0.50782,-2.22657 0.23437,-1.09375 0.46875,-2.07031 0.39062,-1.44531 0.82031,-3.125 0.39062,-1.44531 0.89844,-3.32031 0.50781,-1.875 1.13281,-3.94531 0.39062,-0.3125 0.74219,-0.46875 0.35156,-0.15625 0.66406,-0.23438 0.35156,-0.11719 0.66406,-0.11719 0.39063,0 0.70313,0.11719 0.3125,0.0781 0.50781,0.50781 0.23437,0.39063 0.3125,1.21094 0.0781,0.82031 0,2.22656 -0.0781,1.71875 -0.625,3.75 -0.50781,2.03125 -1.36719,4.21875 -0.85937,2.14844 -1.99219,4.33594 -1.09375,2.14844 -2.38281,4.10156 z m -2.30469,0.50782 q 0.15625,-0.74219 0.27344,-1.48438 0.15625,-0.74219 0.35156,-1.52344 -0.0781,0.0391 -0.15625,0.0781 -0.0391,0.0391 -0.11718,0.0781 -0.42969,0.19532 -0.58594,0 -0.15625,-0.23437 -0.15625,-0.70312 0,-0.23438 -0.0391,-0.82031 -0.0391,-0.625 -0.23438,-1.25 -0.15625,-0.66407 -0.50781,-1.13282 -0.35156,-0.50781 -0.97656,-0.50781 -0.89844,0 -1.83594,0.9375 -0.9375,0.89844 -1.75781,2.22656 -0.82032,1.28907 -1.36719,2.77344 -0.54688,1.48438 -0.625,2.65625 -0.0781,1.875 0.46875,2.69531 0.54687,0.82032 1.48437,0.82032 0.70313,0 1.52344,-0.54688 0.85938,-0.54687 1.64063,-1.32812 0.82031,-0.78125 1.48437,-1.60157 0.70313,-0.82031 1.13281,-1.36718 z"
         style="font-family:Satisfy;-inkscape-font-specification:Satisfy"
         id="path5285" />
      <path
         d="m 145.10547,254.42969 q -1.95313,0 -3.55469,-0.9375 -1.5625,-0.9375 -2.69531,-2.57813 -1.09375,-1.64062 -1.67969,-3.82812 -0.54687,-2.22657 -0.46875,-4.72657 0.0781,-2.34375 0.58594,-5.07812 0.54687,-2.73438 1.52344,-5.46875 0.97656,-2.77344 2.34375,-5.3125 1.40625,-2.57813 3.20312,-4.53125 1.79688,-1.95313 3.98438,-3.125 2.1875,-1.21094 4.80468,-1.21094 1.60157,0 2.69532,0.66406 1.13281,0.625 1.79687,1.67969 0.70313,1.05469 0.97656,2.38281 0.27344,1.32813 0.23438,2.69532 -0.0781,1.28906 -0.39063,2.5 -0.27343,1.21093 -0.82031,2.1875 -0.50781,0.9375 -1.28906,1.52343 -0.74219,0.54688 -1.71875,0.54688 -0.46875,-0.0391 -0.89844,-0.3125 -0.39062,-0.23438 -0.82031,-0.70313 -0.39063,-0.46875 -0.74219,-1.36718 1.05469,-0.42969 1.64063,-1.48438 0.625,-1.09375 0.9375,-2.26562 0.35156,-1.32813 0.46875,-2.96875 0.0781,-1.60157 -0.66407,-2.34375 -0.74218,-0.74219 -1.67968,-0.74219 -1.83594,0 -3.86719,1.91406 -2.03125,1.91406 -3.78906,5.19531 -1.71875,3.24219 -2.92969,7.57813 -1.17188,4.33594 -1.36719,9.17969 -0.0781,2.1875 0.27344,3.71093 0.39062,1.52344 1.05469,2.5 0.70312,0.97657 1.5625,1.40625 0.85937,0.42969 1.71875,0.42969 1.36718,0 2.57812,-0.58594 1.21094,-0.58593 2.1875,-1.44531 1.01563,-0.85937 1.71875,-1.79687 0.74219,-0.89844 1.13281,-1.60157 0.27344,-0.50781 0.58594,-0.625 0.3125,-0.11718 0.54688,0.0781 0.23437,0.15625 0.3125,0.54687 0.0781,0.35157 -0.15625,0.85938 -0.66407,1.32812 -1.64063,2.65625 -0.9375,1.32812 -2.14844,2.38281 -1.17187,1.09375 -2.57812,1.75781 -1.40625,0.66407 -2.96875,0.66407 z"
         style="font-family:Satisfy;-inkscape-font-specification:Satisfy"
         id="path5287" />
      <path
         d="m 178.69922,239.39062 q -0.54688,0.78125 -1.40625,1.95313 -0.85938,1.13281 -1.79688,2.30469 -0.89843,1.13281 -1.79687,2.10937 -0.85938,0.9375 -1.44531,1.32813 -0.39063,0.23437 -0.89844,0.39062 -0.50781,0.15625 -1.05469,0.19531 -0.50781,0.0391 -0.97656,-0.0781 -0.46875,-0.0781 -0.82031,-0.3125 -0.35157,-0.27344 -0.58594,-0.78125 -0.19531,-0.42969 -0.39063,-1.13281 -0.15625,-0.70313 -0.11718,-1.75782 -0.9375,1.5625 -2.07032,2.42188 -1.13281,0.82031 -2.14843,1.21094 -1.17188,0.42968 -2.34375,0.50781 -0.54688,0 -1.17188,-0.39063 -0.625,-0.35156 -1.05469,-1.13281 -0.42968,-0.82031 -0.54687,-2.07031 -0.11719,-1.28906 0.3125,-3.04688 0.54687,-2.38281 1.71875,-4.33593 1.21094,-1.95313 2.61719,-3.32032 1.40625,-1.40625 2.77343,-2.10937 1.36719,-0.70313 2.26563,-0.625 1.05469,0.19531 1.71875,0.625 0.54687,0.39062 0.70312,1.17187 0.19532,0.74219 -0.625,1.99219 0.54688,-0.11719 0.89844,-0.15625 0.39063,-0.0391 0.58594,-0.0391 0.23437,0 0.3125,0.0391 0.0391,0.0781 0.0391,0.35156 0,0.23438 -0.11719,0.89844 -0.11718,0.66406 -0.35156,1.79688 -0.23437,1.13281 -0.625,2.92968 -0.0781,0.35157 -0.15625,0.66407 -0.0391,0.27343 -0.11719,0.58593 -0.0391,0.27344 -0.11718,0.66407 -0.0781,0.39062 -0.19532,0.97656 -0.0391,0.35156 -0.0391,0.78125 0.0391,0.39062 0.15625,0.74219 0.11719,0.35156 0.35156,0.58593 0.27344,0.19532 0.74219,0.19532 0.39063,0 1.01563,-0.46875 0.625,-0.50782 1.32812,-1.25 0.70313,-0.78125 1.44531,-1.67969 0.78125,-0.9375 1.44532,-1.79688 0.66406,-0.85937 1.17187,-1.52343 0.54688,-0.66407 0.78125,-0.97657 0.3125,-0.35156 0.625,-0.39062 0.3125,-0.0781 0.46875,0.15625 0.15625,0.23437 0.0391,0.70312 -0.0781,0.46875 -0.54687,1.09375 z m -11.44531,1.71875 q 0.19531,-0.78125 0.46875,-1.83593 0.27343,-1.05469 0.46875,-2.03125 0.19531,-0.97657 0.27343,-1.60157 0.11719,-0.66406 -0.0391,-0.625 -0.19531,0.0391 -0.42969,0.11719 -0.19531,0.0781 -0.50781,0.11719 -0.3125,0.0391 -0.625,0.11719 0.3125,-0.625 0.35156,-1.01563 0.0781,-0.42969 0.0391,-0.66406 -0.0391,-0.27344 -0.15625,-0.42969 -0.42969,-0.35156 -1.52344,0.58594 -1.05469,0.89844 -2.46094,3.35937 -0.58594,1.01563 -0.9375,2.1875 -0.35156,1.13282 -0.50781,2.14844 -0.11719,1.01563 -0.0391,1.79688 0.0781,0.74218 0.3125,0.97656 0.42968,0.42969 0.97656,0.42969 0.54687,-0.0391 1.09375,-0.3125 0.58594,-0.3125 1.13281,-0.78125 0.58594,-0.46875 1.01563,-0.97657 0.46875,-0.50781 0.74218,-0.9375 0.3125,-0.42968 0.35157,-0.625 z"
         style="font-family:Satisfy;-inkscape-font-specification:Satisfy"
         id="path5289" />
      <path
         d="m 175.49609,246.53906 q 1.71875,-7.22656 2.73438,-11.60156 1.05469,-4.375 1.60156,-6.67969 0.625,-2.73437 0.85938,-3.78906 0.11718,-0.74219 0.19531,-1.44531 0.0781,-0.625 0.0781,-1.28907 0,-0.66406 -0.11718,-1.21093 0.3125,-0.19532 0.66406,-0.3125 0.39062,-0.11719 0.74219,-0.19532 0.42968,-0.11718 0.85937,-0.19531 0.42969,-0.0781 0.78125,-0.0781 0.3125,0 0.58594,0.0781 0.27344,0.0391 0.35156,0.23438 0.23438,0.19531 0.19531,0.78125 0,0.58593 -0.0781,1.21093 -0.15625,0.74219 -0.35156,1.60157 -0.46875,1.67968 -1.28907,4.84375 -0.70312,2.69531 -1.91406,7.34375 -1.17187,4.64843 -2.96875,11.71875 -0.19531,0.19531 -0.46875,0.27343 -0.27344,0.0781 -0.50781,0.0781 -0.27344,0 -0.58594,-0.0391 -0.27344,-0.0781 -0.54687,-0.23438 -0.23438,-0.15625 -0.46875,-0.42969 -0.23438,-0.23437 -0.35157,-0.66406 z"
         style="font-family:Satisfy;-inkscape-font-specification:Satisfy"
         id="path5291" />
      <path
         d="m 202.52734,239.03906 q -1.17187,1.71875 -2.65625,3.35938 -1.48437,1.60156 -3.16406,2.89062 -1.64062,1.25 -3.39844,2.03125 -1.71875,0.78125 -3.35937,0.78125 -0.85938,0 -1.875,-0.42969 -0.97656,-0.39062 -1.79688,-1.25 -0.82031,-0.85937 -1.32812,-2.22656 -0.46875,-1.36719 -0.27344,-3.32031 0.15625,-1.60156 0.97656,-3.35938 0.85938,-1.79687 2.07032,-3.28125 1.25,-1.48437 2.77343,-2.46093 1.5625,-0.97657 3.125,-0.97657 1.48438,0 2.14844,0.74219 0.66406,0.74219 0.58594,1.83594 -0.11719,1.21094 -0.70313,2.22656 -0.54687,1.01563 -1.32812,1.83594 -0.78125,0.82031 -1.67969,1.48437 -0.85937,0.66407 -1.64062,1.21094 -0.85938,0.58594 -1.64063,1.13281 -0.78125,0.50782 -1.36719,0.9375 0.0391,0.97657 0.35157,1.64063 0.3125,0.66406 0.78125,1.09375 0.46875,0.39062 1.05468,0.58594 0.625,0.15625 1.25,0.15625 1.32813,0 2.77344,-0.82032 1.44531,-0.85937 2.8125,-2.03125 1.40625,-1.21093 2.57813,-2.5 1.21093,-1.28906 1.99218,-2.22656 0.27344,-0.3125 0.54688,-0.35156 0.3125,-0.0781 0.46875,0.0781 0.19531,0.11719 0.19531,0.46875 0,0.3125 -0.27344,0.74219 z m -10,-6.01562 q -0.46875,0 -1.13281,0.46875 -0.625,0.46875 -1.25,1.36718 -0.625,0.85938 -1.17187,2.14844 -0.54688,1.25 -0.82032,2.89063 0.46875,-0.35157 1.01563,-0.70313 0.54687,-0.39062 1.09375,-0.82031 1.67969,-1.28906 2.34375,-2.26563 0.66406,-0.97656 0.74219,-1.67968 0.0781,-0.74219 -0.15625,-1.05469 -0.23438,-0.35156 -0.66407,-0.35156 z"
         style="font-family:Satisfy;-inkscape-font-specification:Satisfy"
         id="path5293" />
      <path
         d="m 211.31641,248.14062 q -0.89844,0 -1.5625,-0.35156 -0.625,-0.3125 -1.01563,-0.85937 -0.39062,-0.54688 -0.50781,-1.25 -0.11719,-0.74219 0.0781,-1.5625 0.11719,-0.54688 0.39063,-1.44532 0.27344,-0.9375 0.54687,-1.99218 0.3125,-1.09375 0.54688,-2.14844 0.27344,-1.09375 0.35156,-1.95313 0.0781,-0.89843 -0.0781,-1.44531 -0.15625,-0.58594 -0.66407,-0.58594 -0.625,0 -1.28906,0.42969 -0.66406,0.39063 -1.36719,1.09375 -0.66406,0.70313 -1.36718,1.64063 -0.66407,0.89843 -1.32813,1.875 -0.35156,1.32812 -0.58594,2.34375 -0.23437,0.97656 -0.42968,1.79687 -0.15625,0.78125 -0.3125,1.40625 -0.15625,0.58594 -0.27344,1.13281 -0.11719,0.39063 -0.70313,0.78125 -0.58593,0.35157 -1.25,0.58594 -0.66406,0.23438 -1.13281,0.23438 -0.50781,0 -0.42969,-0.35157 0.0391,-0.23437 0.27344,-1.05468 0.19531,-0.82032 0.50781,-1.91407 0.27344,-1.13281 0.58594,-2.38281 0.3125,-1.25 0.58594,-2.38281 0.19531,-0.89844 0.42969,-1.99219 0.19531,-0.9375 0.46875,-2.1875 0.3125,-1.25 0.70312,-2.73437 0.27344,-0.23438 0.54688,-0.35157 0.3125,-0.15625 0.625,-0.23437 0.3125,-0.11719 0.66406,-0.15625 0.3125,0 0.625,0.0391 0.27344,0.0391 0.54687,0.15625 0.3125,0.0781 0.54688,0.27344 -0.11719,0.27344 -0.27344,0.78125 -0.15625,0.46875 -0.3125,1.01562 -0.15625,0.625 -0.39062,1.28907 0.50781,-0.70313 1.13281,-1.40625 0.66406,-0.74219 1.40625,-1.32813 0.78125,-0.58594 1.64062,-0.9375 0.85938,-0.39062 1.75782,-0.39062 0.74218,0 1.32812,0.42968 0.58594,0.42969 0.89844,1.21094 0.35156,0.74219 0.39062,1.79688 0.0781,1.05468 -0.27343,2.30468 l -0.42969,1.71875 q -0.19531,0.82032 -0.50781,1.95313 -0.27344,1.09375 -0.70313,2.42187 -0.23437,0.85938 -0.19531,1.48438 0.0781,0.625 0.78125,0.625 0.70312,0 1.75781,-0.85938 1.09375,-0.85937 2.1875,-2.07031 1.09375,-1.21094 2.07031,-2.46094 0.97657,-1.28906 1.48438,-2.07031 0.35156,-0.50781 0.66406,-0.66406 0.3125,-0.15625 0.46875,-0.0391 0.19531,0.11718 0.19531,0.54687 0,0.39063 -0.3125,1.01563 -0.27343,0.54687 -0.85937,1.44531 -0.54688,0.89844 -1.32813,1.91406 -0.78125,1.01563 -1.67968,2.07031 -0.89844,1.01563 -1.875,1.875 -0.97657,0.82032 -1.95313,1.32813 -0.9375,0.54687 -1.79687,0.54687 z"
         style="font-family:Satisfy;-inkscape-font-specification:Satisfy"
         id="path5295" />
      <path
         d="m 230.61328,239.70312 q -0.19531,1.21094 -0.39062,2.30469 -0.15625,1.09375 -0.19532,1.75781 -0.0391,0.97657 0.35157,1.40625 0.39062,0.42969 0.85937,0.42969 0.54688,0 1.32813,-0.54687 0.82031,-0.54688 1.71875,-1.36719 0.89843,-0.82031 1.79687,-1.79688 0.89844,-0.97656 1.64063,-1.83593 0.78125,-0.89844 1.28906,-1.5625 0.54687,-0.66407 0.74219,-0.85938 0.23437,-0.23437 0.46875,-0.27344 0.27343,-0.0391 0.42968,0.0781 0.15625,0.11719 0.15625,0.42969 0,0.3125 -0.3125,0.78125 -0.46875,0.74218 -1.21093,1.75781 -0.74219,0.97656 -1.64063,2.03125 -0.89844,1.05469 -1.91406,2.07031 -0.97656,1.01563 -1.99219,1.79688 -0.97656,0.78125 -1.91406,1.25 -0.89844,0.50781 -1.64063,0.50781 -0.54687,0 -1.05468,-0.3125 -0.46875,-0.3125 -0.85938,-0.82031 -0.39062,-0.50782 -0.625,-1.13282 -0.19531,-0.625 -0.15625,-1.25 0.0391,-0.27343 0.11719,-0.9375 -1.64063,1.83594 -3.32031,2.92969 -1.64063,1.05469 -3.16407,1.05469 -0.54687,0 -1.17187,-0.27344 -0.625,-0.27344 -1.13281,-0.89844 -0.46875,-0.625 -0.78125,-1.64062 -0.3125,-1.01563 -0.23438,-2.46094 0.11719,-2.26562 0.89844,-4.29687 0.78125,-2.03125 1.95312,-3.51563 1.21094,-1.52344 2.69532,-2.38281 1.52343,-0.89844 3.04687,-0.89844 0.66406,0 1.21094,0.35156 0.54687,0.3125 0.9375,0.85938 0.39062,0.50781 0.625,1.13281 0.27344,0.625 0.39062,1.17188 0.27344,-1.13282 0.50782,-2.22657 0.23437,-1.09375 0.46875,-2.07031 0.39062,-1.44531 0.82031,-3.125 0.39062,-1.44531 0.89844,-3.32031 0.50781,-1.875 1.13281,-3.94531 0.39062,-0.3125 0.74219,-0.46875 0.35156,-0.15625 0.66406,-0.23438 0.35156,-0.11719 0.66406,-0.11719 0.39063,0 0.70313,0.11719 0.3125,0.0781 0.50781,0.50781 0.23437,0.39063 0.3125,1.21094 0.0781,0.82031 0,2.22656 -0.0781,1.71875 -0.625,3.75 -0.50781,2.03125 -1.36719,4.21875 -0.85937,2.14844 -1.99219,4.33594 -1.09375,2.14844 -2.38281,4.10156 z m -2.30469,0.50782 q 0.15625,-0.74219 0.27344,-1.48438 0.15625,-0.74219 0.35156,-1.52344 -0.0781,0.0391 -0.15625,0.0781 -0.0391,0.0391 -0.11718,0.0781 -0.42969,0.19532 -0.58594,0 -0.15625,-0.23437 -0.15625,-0.70312 0,-0.23438 -0.0391,-0.82031 -0.0391,-0.625 -0.23438,-1.25 -0.15625,-0.66407 -0.50781,-1.13282 -0.35156,-0.50781 -0.97656,-0.50781 -0.89844,0 -1.83594,0.9375 -0.9375,0.89844 -1.75781,2.22656 -0.82032,1.28907 -1.36719,2.77344 -0.54688,1.48438 -0.625,2.65625 -0.0781,1.875 0.46875,2.69531 0.54687,0.82032 1.48437,0.82032 0.70313,0 1.52344,-0.54688 0.85938,-0.54687 1.64063,-1.32812 0.82031,-0.78125 1.48437,-1.60157 0.70313,-0.82031 1.13281,-1.36718 z"
         style="font-family:Satisfy;-inkscape-font-specification:Satisfy"
         id="path5297" />
      <path
         d="m 257.56641,239.39062 q -0.54688,0.78125 -1.40625,1.95313 -0.85938,1.13281 -1.79688,2.30469 -0.89844,1.13281 -1.79687,2.10937 -0.85938,0.9375 -1.44532,1.32813 -0.39062,0.23437 -0.89843,0.39062 -0.50782,0.15625 -1.05469,0.19531 -0.50781,0.0391 -0.97656,-0.0781 -0.46875,-0.0781 -0.82032,-0.3125 -0.35156,-0.27344 -0.58593,-0.78125 -0.19532,-0.42969 -0.39063,-1.13281 -0.15625,-0.70313 -0.11719,-1.75782 -0.9375,1.5625 -2.07031,2.42188 -1.13281,0.82031 -2.14844,1.21094 -1.17187,0.42968 -2.34375,0.50781 -0.54687,0 -1.17187,-0.39063 -0.625,-0.35156 -1.05469,-1.13281 -0.42969,-0.82031 -0.54687,-2.07031 -0.11719,-1.28906 0.3125,-3.04688 0.54687,-2.38281 1.71875,-4.33593 1.21093,-1.95313 2.61718,-3.32032 1.40625,-1.40625 2.77344,-2.10937 1.36719,-0.70313 2.26563,-0.625 1.05468,0.19531 1.71875,0.625 0.54687,0.39062 0.70312,1.17187 0.19531,0.74219 -0.625,1.99219 0.54688,-0.11719 0.89844,-0.15625 0.39062,-0.0391 0.58594,-0.0391 0.23437,0 0.3125,0.0391 0.0391,0.0781 0.0391,0.35156 0,0.23438 -0.11719,0.89844 -0.11719,0.66406 -0.35156,1.79688 -0.23438,1.13281 -0.625,2.92968 -0.0781,0.35157 -0.15625,0.66407 -0.0391,0.27343 -0.11719,0.58593 -0.0391,0.27344 -0.11719,0.66407 -0.0781,0.39062 -0.19531,0.97656 -0.0391,0.35156 -0.0391,0.78125 0.0391,0.39062 0.15625,0.74219 0.11719,0.35156 0.35156,0.58593 0.27344,0.19532 0.74219,0.19532 0.39062,0 1.01562,-0.46875 0.625,-0.50782 1.32813,-1.25 0.70312,-0.78125 1.44531,-1.67969 0.78125,-0.9375 1.44531,-1.79688 0.66407,-0.85937 1.17188,-1.52343 0.54687,-0.66407 0.78125,-0.97657 0.3125,-0.35156 0.625,-0.39062 0.3125,-0.0781 0.46875,0.15625 0.15625,0.23437 0.0391,0.70312 -0.0781,0.46875 -0.54687,1.09375 z m -11.44532,1.71875 q 0.19532,-0.78125 0.46875,-1.83593 0.27344,-1.05469 0.46875,-2.03125 0.19532,-0.97657 0.27344,-1.60157 0.11719,-0.66406 -0.0391,-0.625 -0.19531,0.0391 -0.42969,0.11719 -0.19531,0.0781 -0.50781,0.11719 -0.3125,0.0391 -0.625,0.11719 0.3125,-0.625 0.35156,-1.01563 0.0781,-0.42969 0.0391,-0.66406 -0.0391,-0.27344 -0.15625,-0.42969 -0.42968,-0.35156 -1.52343,0.58594 -1.05469,0.89844 -2.46094,3.35937 -0.58594,1.01563 -0.9375,2.1875 -0.35156,1.13282 -0.50781,2.14844 -0.11719,1.01563 -0.0391,1.79688 0.0781,0.74218 0.3125,0.97656 0.42969,0.42969 0.97657,0.42969 0.54687,-0.0391 1.09375,-0.3125 0.58593,-0.3125 1.13281,-0.78125 0.58594,-0.46875 1.01562,-0.97657 0.46875,-0.50781 0.74219,-0.9375 0.3125,-0.42968 0.35156,-0.625 z"
         style="font-family:Satisfy;-inkscape-font-specification:Satisfy"
         id="path5299" />
      <path
         d="m 253.46484,246.96875 q -0.27343,0.42969 -0.58593,0.54687 -0.35157,0.15625 -0.58594,0.0391 -0.27344,-0.0781 -0.35156,-0.39063 -0.0781,-0.3125 0.15625,-0.78125 0.11718,-0.23437 0.54687,-1.05469 0.39063,-0.82031 0.97656,-1.95312 0.54688,-1.17188 1.21094,-2.5 0.66406,-1.36719 1.25,-2.57813 0.625,-1.21093 1.13281,-2.14843 0.50782,-0.97657 0.74219,-1.40625 -0.42969,-0.39063 -0.58594,-0.54688 -0.15625,-0.19531 -0.23437,-0.78125 -0.0781,-0.50781 0.23437,-1.32812 0.3125,-0.82032 0.82032,-1.5625 0.50781,-0.78125 1.13281,-1.32813 0.625,-0.54687 1.21094,-0.54687 1.09375,0 1.52343,0.70312 0.46875,0.70313 0.54688,1.44531 0.0781,0.50782 -0.0781,1.28907 -0.15625,0.78125 -0.58593,1.40625 0.11718,0.0781 0.3125,0.19531 0.19531,0.0781 0.625,0.0781 0.625,0 0.85937,-0.0781 0.27344,-0.0781 0.82031,-0.0781 0.66407,0 1.09375,0.35157 0.42969,0.3125 0.70313,0.82031 0.27344,0.46875 0.39062,1.05469 0.15625,0.54687 0.19532,1.01562 0.11718,0.97656 -0.50782,2.03125 -0.625,1.05469 -1.52343,2.30469 -0.54688,0.78125 -1.09375,1.75781 -0.54688,0.97656 -0.46875,1.75781 0.0781,0.50782 0.27343,0.82032 0.19532,0.3125 1.09375,0.3125 0.66407,0 1.44532,-0.46875 0.82031,-0.50782 1.64062,-1.25 0.85938,-0.78125 1.67969,-1.67969 0.82031,-0.9375 1.52344,-1.79688 0.70312,-0.89843 1.17187,-1.60156 0.50781,-0.70312 0.74219,-1.01562 0.19531,-0.3125 0.50781,-0.42969 0.3125,-0.11719 0.54688,0 0.23437,0.11719 0.27343,0.46875 0.0781,0.35156 -0.27343,0.9375 -0.23438,0.39062 -0.82032,1.25 -0.54687,0.85937 -1.36718,1.91406 -0.78125,1.05469 -1.75782,2.1875 -0.97656,1.09375 -2.07031,2.03125 -1.05469,0.89844 -2.14844,1.48438 -1.05468,0.58593 -2.03125,0.58593 -1.01562,0 -1.67968,-0.39062 -0.66407,-0.39063 -1.09375,-0.9375 -0.39063,-0.58594 -0.58594,-1.25 -0.15625,-0.70313 -0.11719,-1.28906 0.0391,-0.46875 0.23438,-0.97657 0.23437,-0.54687 0.50781,-1.09375 0.3125,-0.58593 0.625,-1.13281 0.35156,-0.58594 0.625,-1.13281 0.66406,-1.13281 1.05469,-1.91406 0.42968,-0.82032 0.42968,-1.36719 0,-0.35156 -0.15625,-0.625 -0.15625,-0.27344 -0.50781,-0.27344 -0.23437,0 -0.35156,0.0391 -0.0781,0 -0.19531,0 -0.0781,0 -0.27344,0.0391 -0.15625,0 -0.50781,0 -0.50782,0 -0.85938,-0.15625 -0.35156,-0.15625 -0.66406,-0.23438 -0.15625,0.27344 -0.70313,1.17188 -0.54687,0.89843 -1.28906,2.10937 -0.70312,1.21094 -1.52344,2.53906 -0.78125,1.32813 -1.48437,2.5 -0.70313,1.13282 -1.17188,1.95313 -0.50781,0.78125 -0.625,0.9375 z"
         style="font-family:Satisfy;-inkscape-font-specification:Satisfy"
         id="path5301" />
    </g>
  </g>
</svg>
